<?xml version="1.0" encoding="UTF-8"?>
<svg width="100px" height="100px" viewBox="0 0 100 100" version="1.1" xmlns="http://www.w3.org/2000/svg" xmlns:xlink="http://www.w3.org/1999/xlink">
    <!-- Generator: Sketch 52.6 (67491) - http://www.bohemiancoding.com/sketch -->
    <title>icon</title>
    <desc>Created with Sketch.</desc>
    <g id="Page-1" stroke="none" stroke-width="1" fill="none" fill-rule="evenodd">
        <g id="icon">
            <circle id="bg" fill="#195192" cx="50" cy="50" r="50"></circle>
            <g id="telescope" transform="translate(22.000000, 20.000000)" fill="#FFFFFF">
                <path d="M55.6489805,14.9889629 L47.748637,1.30447084 C47.0289523,0.057989944 45.4295681,-0.370337468 44.1832449,0.349156331 L40.335229,2.57085868 C39.731372,2.91944894 39.2995613,3.48231228 39.1190932,4.1557576 C38.960172,4.74859074 39.0132187,5.36472157 39.2659833,5.91555324 L27.1021099,13.7759519 L25.1743832,10.4371638 L25.2745703,10.3793024 C25.7977088,10.0773075 25.9769737,9.40834672 25.6748812,8.88518788 C25.372898,8.36191966 24.7039632,8.18275717 24.1808246,8.48486144 L21.2199458,10.1944522 L19.306219,11.2993969 C19.3061097,11.2995063 19.3060003,11.2995063 19.3058909,11.2996157 L18.2588482,11.9041524 C17.7357097,12.2061472 17.5564448,12.875108 17.8585373,13.3982669 C18.061099,13.7491541 18.4287069,13.9452703 18.8067054,13.9452703 C18.9922047,13.9452703 19.1803289,13.8980186 19.3525938,13.7985933 L19.452781,13.7407319 L21.5459914,17.3663113 L8.426403,25.8441533 C7.93695183,26.1604768 7.7814212,26.8050461 8.07279504,27.3097199 L8.91979166,28.7767085 L5.55510194,30.7192761 L5.21068144,30.1227241 C4.90858889,29.5995653 4.23976343,29.420184 3.71662489,29.7223977 L1.15113511,31.2037149 C0.619027854,31.5109599 0.23840437,32.0069928 0.0793737539,32.6005916 C-0.0796568626,33.194081 0.00193656237,33.8140401 0.309279088,34.3460586 L3.31587649,39.5540212 C3.74156229,40.2912344 4.51615295,40.7037019 5.31185291,40.7037019 C5.70166386,40.7037019 6.09683416,40.6046047 6.45809834,40.3960193 L9.02358812,38.9147021 C9.2748215,38.7696658 9.45813327,38.5307825 9.53316422,38.2505539 C9.60830454,37.9703254 9.5689297,37.6717213 9.42389903,37.4205876 L9.07947853,36.8240355 L12.4441682,34.8813585 L13.2911649,36.3483471 C13.4930703,36.6980311 13.8601314,36.8953505 14.2391142,36.8953505 C14.4072229,36.8953505 14.5777379,36.856521 14.7370966,36.7748151 L25.8871772,31.0613037 C26.4903779,31.4835059 27.2234062,31.7322333 28.0138562,31.7322333 C28.1057309,31.7322333 28.1966211,31.7277487 28.2868551,31.721186 L37.0018204,53.8122051 L34.161363,53.8122051 C33.5572873,53.8122051 33.0676173,54.301894 33.0676173,54.9059932 C33.0676173,55.5100923 33.5572873,55.9997812 34.161363,55.9997812 L38.6059078,55.9997812 C38.6071109,55.9997812 38.608314,56 38.6095171,56 C38.6114859,56 38.6133452,55.9997812 38.615314,55.9997812 L42.7654225,55.9997812 C43.3694982,55.9997812 43.8591681,55.5100923 43.8591681,54.9059932 C43.8591681,54.301894 43.3694982,53.8122051 42.7654225,53.8122051 L39.3534829,53.8122051 L30.3241751,30.924252 C31.1684374,30.2527755 31.7148727,29.222974 31.7312789,28.0667307 L47.4160289,20.0294665 C47.9172926,20.7341941 48.7209769,21.1255515 49.5452236,21.1255515 C49.9877531,21.1255515 50.43597,21.0131101 50.8459059,20.7764144 L54.6940312,18.554712 C55.2977788,18.2061218 55.7296989,17.6432584 55.910167,16.9698131 C56.0903069,16.296149 55.9976666,15.5927339 55.6489805,14.9889629 Z M21.3473672,12.6468345 L22.3138008,12.0887838 L23.2802345,11.5307331 L25.2626484,14.964462 L23.3856715,16.1773636 L21.3473672,12.6468345 Z M5.3643527,38.5013596 C5.31032167,38.5326419 5.24130632,38.5139381 5.21013456,38.4601237 L2.20353717,33.2521612 C2.18800598,33.2253634 2.18428724,33.1965968 2.19227159,33.166627 C2.20025593,33.1366572 2.21797461,33.1135782 2.24477138,33.0981558 L3.86318681,32.1637327 L6.98265875,37.5670458 L5.3643527,38.5013596 Z M7.98584226,34.9294852 L6.64884758,32.6138265 L10.0135373,30.6712588 L11.350532,32.9869176 L7.98584226,34.9294852 Z M28.0137468,29.5445477 C27.1693752,29.5445477 26.4825029,28.8575394 26.4825029,28.0132444 C26.4825029,27.16884 27.1693752,26.4819411 28.0137468,26.4819411 C28.8581185,26.4819411 29.5449907,27.16884 29.5449907,28.0132444 C29.5449907,28.8576488 28.8581185,29.5445477 28.0137468,29.5445477 Z M31.0954846,25.9342814 C30.4264404,24.9456064 29.2946324,24.2944743 28.0137468,24.2944743 C25.9633019,24.2944743 24.295121,25.9627199 24.295121,28.0132444 C24.295121,28.4657446 24.3766051,28.8995409 24.5252451,29.3009611 L22.2646916,30.4593921 L20.071841,26.6611036 C19.7698578,26.1379448 19.1008136,25.9586729 18.5777844,26.2607772 C18.0546459,26.5627721 17.875381,27.2317328 18.1774735,27.7548917 L20.3154181,31.4582394 L14.6652375,34.3534964 L10.4872385,27.1167757 L29.1085862,15.0835755 L30.7697671,17.9606757 C30.9723288,18.3115629 31.3399367,18.5076791 31.7179352,18.5076791 C31.9034345,18.5076791 32.0915587,18.4604275 32.2638237,18.3610021 C32.7869622,18.0590073 32.9662271,17.3900465 32.6641346,16.8668876 L30.948157,13.8947373 L40.3509789,7.81863512 L46.3088302,18.1384163 L31.0954846,25.9342814 Z M53.7968316,16.4034496 C53.7798786,16.4666706 53.7318631,16.5839247 53.5999574,16.6600523 L49.7518321,18.8817546 C49.5500361,18.9982431 49.2911465,18.9288969 49.1745532,18.7269836 L41.2742096,5.04271036 C41.1980849,4.91079951 41.215038,4.78523264 41.2319911,4.72212107 C41.2489441,4.65890012 41.2970689,4.54164604 41.4289747,4.46540901 L45.2770999,2.24370666 C45.478896,2.12732761 45.7377856,2.1965644 45.8543789,2.3983683 L53.7548318,16.082751 C53.8307377,16.2146618 53.8137847,16.340338 53.7968316,16.4034496 Z" id="Shape" fill-rule="nonzero"></path>
                <path d="M34.5617809,20.4395 C34.2826413,20.1605 33.8954477,20 33.4992496,20 C33.1045523,20 32.7173587,20.1605 32.4382191,20.4395 C32.1590795,20.7185 32,21.104 32,21.5 C32,21.8945 32.1590795,22.2815 32.4382191,22.5605 C32.7173587,22.8395 33.1045523,23 33.4992496,23 C33.8954477,23 34.2811406,22.8395 34.5617809,22.5605 C34.8409205,22.2815 35,21.8945 35,21.5 C35,21.1055 34.8409205,20.7185 34.5617809,20.4395 Z" id="Path"></path>
                <path d="M26.5605,33.4395 C26.2815,33.1605 25.8945,33 25.5,33 C25.104,33 24.7185,33.1605 24.4395,33.4395 C24.159,33.7185 24,34.1055 24,34.5 C24,34.8945 24.159,35.2815 24.4395,35.5605 C24.7185,35.8395 25.104,36 25.5,36 C25.8945,36 26.2815,35.8395 26.5605,35.5605 C26.8395,35.2815 27,34.8945 27,34.5 C27,34.1055 26.8395,33.7185 26.5605,33.4395 Z" id="Path"></path>
                <path d="M24.2876272,38.0744739 C23.7096687,37.8588872 23.0564563,38.1272793 22.828445,38.674071 L16.4940733,53.870536 L14.1248707,53.870536 C13.5036046,53.870536 13,54.3471688 13,54.9351615 C13,55.5231542 13.5036046,55.9997871 14.1248707,55.9997871 L17.2532485,55.9997871 C17.2552733,55.9997871 17.2571855,56 17.2592103,56 C17.2604477,56 17.261685,55.9997871 17.2629224,55.9997871 L22.9736658,55.9997871 C23.5949319,55.9997871 24.0985365,55.5231542 24.0985365,54.9351615 C24.0985365,54.3471688 23.5949319,53.870536 22.9736658,53.870536 L18.9125452,53.870536 L24.9212669,39.4555061 C25.1491657,38.908608 24.8654733,38.2902735 24.2876272,38.0744739 Z" id="Path"></path>
            </g>
        </g>
    </g>
</svg>